<svg xmlns="http://www.w3.org/2000/svg" viewBox="0 0 732 538"><defs><style>.cls-1{fill:#e2cfc0;}.cls-2{fill:#d7caa7;}.cls-3{fill:#baa97f;}.cls-4{fill:#fcf8f6;}.cls-5{fill:#ab471b;}.cls-6{fill:#bbc7c2;}.cls-7{fill:#e6e0d2;}.cls-8{fill:#faf6f3;}.cls-9{fill:#c7836a;}</style></defs><title>nautilus</title><g id="body"><g id="flesh"><g id="Layer_7" data-name="Layer 7"><path class="cls-1" d="M737.11,377c-4.05,56.92-7.08,58.07-7.08,58.07s-12.1,6.65,22.79,17.71S801.88,465,801.88,465L812,435.07H776L745.21,417.8l-8.1-40.8" transform="translate(-512 -239)"/></g><polyline class="cls-2" points="405 306 425 281.86 389 288.16 351 267.17 351 247.23 329 251.43 300 237.78 278 224.14 246.24 221.12 366 293.41 405 306"/><polyline class="cls-3" points="302 84 225.63 141.38 221 149 261.5 138.37 275.39 129.3 302 101.11 302 84"/><path class="cls-3" d="M740.44,380s-37.71-1.05-43.09,13.63S693.1,415,693.1,415l-.06,7,30.16,18.87L755.78,464l34.22-.13-34.48-10.48-19.39-16.78V411.54L741.52,380" transform="translate(-512 -239)"/></g><g id="eye"><polygon class="cls-4" points="300 195 336 195 355 209 361 230 351 245 330 251 278 225 300 195"/><g id="Layer_9" data-name="Layer 9"><polygon class="cls-5" points="294.06 213.65 312 205 346 205 328 189 300 195 294.06 213.65"/></g><polygon class="cls-6" points="309 214.79 320.03 208.78 346 208.99 351 221.56 346 231.23 336 238 320 238 309 230.26 309 214.79"/><path class="cls-1" d="M848,460" transform="translate(-512 -239)"/><polygon points="325 217 335 217 330 225 325 217"/></g></g><g id="carapace"><g id="carapacebase"><polyline class="cls-7" points="300 84 334 88 356 100 379 104 387 111 404 116 414 123 430 129 442 134 461 141 470 149 479 149 488 156 497 156 497 163 513 169 530 184 498 188 478 188 455 188 425 184 400 184 348 184 303 199 259 195 236 184 228 164 228 148.56 260.31 137.71 275 129 299 101 299 101 300 84"/></g><polyline id="carapacecolor" class="cls-5" points="309.9 84 342.44 87.86 363.49 99.44 385.5 103.3 393.16 110.06 409.42 114.89 418.99 121.64 434.31 127.44 445.79 132.26 463.97 139.02 472.58 146.74 481.19 146.74 489.81 153.5 498.42 153.5 498.42 160.25 513.73 166.04 530 180.52 499.38 184.38 480.24 184.38 458.23 184.38 429.52 180.52 405.6 180.52 355.83 180.52 312.77 195 270.67 191.14 248.66 180.52 241 161.22 241 146.32 271.92 135.84 285.98 127.44 308.94 100.41 308.94 100.41 309.9 84"/><g id="carapacemarkings"><path class="cls-8" d="M821,338l42,21,5-2s19,4,14,5-5,0-5,0l2,3h12l-2-3-23-8-22-9-19-7Z" transform="translate(-512 -239)"/><polygon class="cls-8" points="386 128 388 134 398 134 392 126 386 126 386 128"/><polygon class="cls-8" points="404 134 404 141 415 141 412 136 410 132 404 134"/><polygon class="cls-8" points="419 146 432 153 435 151 428 140 422 141 419 146"/><polyline class="cls-8" points="444 158 456 158 456 151 448 147 441 147 443 151 439 151 443 155 441 158"/><polygon class="cls-8" points="297 147 302 144 314 144 317 149 310 150 309 153 302 149 297 147"/><polygon class="cls-8" points="326 138 333 144 344 140 336 132 328 134 326 138"/><polygon class="cls-8" points="351 144 343 144 341 149 346 153 358 149 358 147 351 144"/><polygon class="cls-8" points="377 151 383 156 389 154 381 147 377 151"/><polygon class="cls-8" points="358 153 363 156 369 156 367 152 358 153"/><polygon class="cls-8" points="401 158 401 163 412 163 410 158 404 156 401 158"/><polygon class="cls-8" points="420 160 425 163 429 160 425 158 420 156 420 160"/><polygon class="cls-8" points="446 165 448 169 456 169 454 163 446 165"/><polygon class="cls-8" points="462 165 464 169 470 169 470 163 462 165"/><polygon class="cls-8" points="290 132 290 138 300 138 297 134 290 132"/><polygon class="cls-8" points="341 126 344 132 354 130 351 125 344 123 341 126"/><polygon class="cls-8" points="352 138 352 141 361 143 364 138 355 137 352 138"/><polygon class="cls-8" points="360 132 360 137 369 137 369 130 364 130 360 132"/><polygon class="cls-8" points="386 141 386 147 392 145 391 141 386 141"/><polygon class="cls-8" points="309 117 311 123 319 123 314 117 309 117"/><polygon class="cls-8" points="328 122 328 126 335 126 336 120 328 122"/><path class="cls-8" d="M812,377" transform="translate(-512 -239)"/><polyline class="cls-8" points="303 135 303 137.5 303 140 311 140 311 137 307 135"/><polygon class="cls-8" points="314 137 317 141 322 143 325 141 320 137 314 137"/><polygon class="cls-8" points="316 89 325 90 326 95 341 101 344 99 339 94 334 91 328 86 317 86 316 89"/><polyline class="cls-8" points="369 108 374 111 380 110 360 101 341 101 344 99"/><polygon class="cls-8" points="381 115 404 126 394 117 383 111 380 111 381 115"/><polyline class="cls-8" points="433 138 431.1 136.73 415 126 410 126 398 117 394 117 404 126"/></g></g><g id="shell"><g id="shellbase"><polygon class="cls-7" points="298.36 84.5 291.35 64.5 263.31 36.5 229.27 15.5 182.22 4.5 137.16 12.5 96.11 26.5 61.07 51.5 33.03 84.5 18.02 112.5 10.01 140.5 4 179.5 10.01 212.5 19.02 253.5 40.04 289.5 65.07 316.5 96.11 342.5 133.16 360.5 182.22 377.5 228.27 385.5 256.31 385.5 298.36 379.5 340.41 367.5 376.45 352.5 406.49 331.5 417.5 319.5 406.49 300.5 367.44 289.5 317.38 262.5 269.32 244.5 239.28 222.5 218.26 204.5 189.22 182.5 187.22 168.5 195.23 153.5 232.28 141.5 284.34 108.5 298.36 84.5"/></g><g id="shellpattern"><path class="cls-5" d="M665.67,607l44.8-15.25,8.34-25.41L751.11,547l27.08-23.38V498.23L759.44,471.8l43.76,27.44,5.21,15.25v15.25L848,518.56l-14.59-19.32L737.56,447.4H727.14l1-10.17-26-17.28L698,406.73l6.25-14.23,31.26-12.2L724,376.24l-28.13-7.12,1,15.25-13.55-2-7.29,11.18,12.5,14.23,3.13,34.56-13.55,10.17-3.12,9.15-9.38,7.12L623,463.66V453.5l-43.75-5.09-16.67-14.23V420l-11.47-12.2,11.47,4.07,12.5,18.3,32.3,3.05,31.25,15.24,30.22-5.08-71.89-35.58-34.38-38.63V360l50,34.57,41.67,2,22.92-22.37-31.25,8.14-24-13.22-31.25-52.86,11.46-11.18s-15.63-31.52-15.63-30.5,44.8,83.36,44.8,83.36,13.54,11.18,12.5,11.18h10.42l-11.46-13.21,1-81.33,10.42,11.18s-3.12,18.3-3.12,19.32-3.13,9.15-3.13,9.15,12.5,29.48,11.46,29.48h-12.5s7.29,25.41,14.58,20.33-1-12.2-1-12.2l7.3-3-5.21-74.21L685.47,364l18.75,5.08L693.8,337.61v-63l11.46-20.33,1,89.46,34.39-75.23,9.37,19.32s-11.46,19.31-11.46,21.34,2.09,9.15,2.09,9.15l-9.38,23.38,1,10.17,18.76-12.2s-4.17-1,3.12-10.16a168.87,168.87,0,0,1,12.5-14.24L764.65,301l20.84-11.18-18.76,42.69-7.29,9.15-16.67,10.17s-16.67,1-16.67,9.15v8.13L740.69,359l35.42-12.2,16.67-24.4,1-12.2,14.59,3-8.34-18.3L777.15,269.5s-24-15.25-25-15.25-35.43-12.2-35.43-12.2L679.22,239l-33.34,7.12s-37.51,10.16-37.51,11.18-32.3,19.31-32.3,19.31l-30.21,31.52L527.1,338.62l-13.54,38.63v41.68c-6.25,4.07,8.33,51.85,8.33,51.85l18.76,44.73,18.2,25.38,3.68,5.12,34.38,28.46h47.92l2.09-13.22L674,547l34.38-9.15,16.67-15.25-17.71-10.16-11.46,16.26-33.34,5.09L635.46,545l-7.3,13.21-45.84-5.08-16.67-15.25L594.82,545l16.67-3L624,546l-24-18.3-24-5.09L546.9,503.31l33.34,12.2,9.37-2,20.84,14.23,21.88-5.09,26-8.13,17.71-11.18-11.46-11.18L649,500.26l-33.34,9.15H600L539.6,480.94h22.93l29.17,17.29,30.21-1,16.67-5.08L605.24,484,575,474.85,550,459.6l-11.46-21.35,27.09,17.28,14.59,12.2,34.38,6.1,39.59,7.11L664.63,485l10.42-11.18h10.42l2.08-19.32,10.42-2,8.33-12.2v14.23l1.05,19.32v23.38l-18.76,7.12,2.09,7.11,29.17-2,7.29-16.27-7.29-19.31,12.5-6.1s2.09-17.28,5.21-8.13-5.21,16.26-5.21,16.26L749,485l11.46,17.28-6.25,22.37L691.72,570.4l-2.09,13.22-35.42,8.13-13.54,5.08Z" transform="translate(-512 -239)"/></g></g><g id="tentacles"><polygon class="cls-9" points="515 291 516 278 502 254 484 241 459 240 490 266 515 291"/><polygon class="cls-8" points="361 230 385 238 402 234 437 234 448 230 484 226 484 214 417 217 361 230"/><polygon class="cls-8" points="354.48 239.78 446 242 437.71 250.49 351 245 354.48 239.78"/><polygon class="cls-8" points="351 245 361 257 392 267 408 264 429 259 441 251 402 245 351 245"/><polygon class="cls-8" points="379 184 399 191 422 199 443 201 481 207 503 203 513 197 514 192 504 186 379 184"/><path class="cls-8" d="M908,498" transform="translate(-512 -239)"/><polyline class="cls-5" points="351 247 351 267 389 288 425 282 397.39 265.99 361 256 351 245 351 247"/><polyline class="cls-8" points="328 189 355 209 352 199 359 199 382.92 185.37 379 184 348 184 328 189"/><polyline class="cls-5" points="361 230 355 240 382.92 245 456 248 469 255 476 264 482 278 484 269 481 259 474 250 459 240 446 235 437 234 361 230"/><polyline class="cls-8" points="356.43 214 361 230 417 217 484 214 415 209 376 210 356.43 214"/><polygon class="cls-8" points="351 199 356.43 214 369.5 211.33 373 203 385 197 411.94 195.5 382.92 185.37 356.43 199 351 199"/><g id="lowertentacles"><polyline class="cls-8" points="483 214 577 232 639 259 661 269 686 285 708 303 732 323 728 325 711 313 699 303 688 295 680 287 667 279 650 270 631 262 614 253 592 246 576 239 548 232 531 227.43 519 225 495.47 222.5 483 221 483 214"/><polyline class="cls-8" points="481 207 516 201.85 544 212 571 226 610.4 246.54 614 254 578.29 240 559 233 540 226 484 214 481 207"/><polyline class="cls-8" points="448 230 484 226 538 254 555 269 581 298 581 301 601 315 622 329 627 333 625 336 617 333 600 322 589 314 579 306 567 296 556 283 547 274 540 267 530 259 521.85 256 484 232 448 230"/><polyline class="cls-8" points="486 240 521 264 527 274 544 312 541 312 559 356 558 359 520 283 483 245"/><polyline class="cls-8" points="521.85 256 529.5 258.5 572.5 319.5 594.5 357.5 615.5 401.5 619.5 411.5 631.5 430.5 631.5 434.5 627.5 434.5 604.5 393.5 594.5 373.5 582.5 352.5 570.5 329.5 554.5 308.5 547.5 295.5 521.85 256"/><polyline class="cls-8" points="528.88 278.2 583 384 608 429 616 441 632 457 667 476 669 477 670 474 662 466 653 461 642 456 631 443 624 437 614 424 593 391 539.82 287 528.88 278.2"/><polyline class="cls-8" points="525 185 514 186.27 562 209 586 226 603.33 242.86 614 254 614 259 625 278 627 298 631 301 635 293 627.22 260 613 240 586 218 564 204 525 185"/><polyline class="cls-8" points="490 266 538 374 565 407 569 428 574 460 572 477 580 481 582 469 573 414 558 388 544 371 494.5 270.5 490 265"/><polyline class="cls-8" points="446 262 484 301 510 336 529.4 354.66 556 370 581 390 596 413 598 438 594 447 594 452 598 452 604 432 604 421.8 582 384 535 348 486 288 446 262"/><polyline class="cls-8" points="446 262 470 304 468 406 478 408 493 431 500 437 498 419 481 400 473 395 480.17 297.07 446 262"/><path class="cls-8" d="M949,489l3.75-2.63L968,486l13,7,12,21.67,9.14,9.83L999,584l-6,30-5,43-2,49,10,25,6,19s4,9,2,17-5,10-5,10l-4-23-9-26-9-29V638l8-66-7-22,2.29-10L949,489" transform="translate(-512 -239)"/></g><polygon class="cls-5" points="369 211 373 203 386 196 412 195 423 199 481 207 537 219 540 223 484 214 411.94 218.18 369 211"/><polygon class="cls-5" points="437 234 448 230 484 232 525 258 534 274 548 287 537 287 525 274 519 264 500 250 484 241 459 240 437 234"/><polygon class="cls-5" points="410.21 263.56 446 262 486 288 470 264 462 260 451 251 437.71 250.49 410.21 263.56"/><polygon class="cls-5" points="564 215 562 209 518.1 186.79 504 185 514 192 564 215"/><polygon class="cls-8" points="508 200 521 203 545 212 571 226 577 226 564 215 514 192 508 200"/><polygon class="cls-8" points="481 259 491 288 504 312 504 306 508 306 490 265 481 259"/><polygon class="cls-8" points="530 184 564 200 563 204 524.77 185 530 184"/><polygon class="cls-8" points="538 254 555 256 548 249 548 245 553 245 564 256 575 267 581 271 572 256 564 250 563 247 570 247 540 232 520 225 484 221.12 484 226 506 235 538 254"/><polygon class="cls-9" points="397.39 265.99 429 260 446 262 474 297 470 304 448 304 439 298 440 292 434 293 433 299 416 282 397.39 265.99"/></g></svg>