<svg id="Layer_1" data-name="Layer 1" xmlns="http://www.w3.org/2000/svg" viewBox="0 0 1201.41 525.29"><defs><style>.cls-1{fill:#20242f;}.cls-10,.cls-12,.cls-14,.cls-15,.cls-17,.cls-19,.cls-2,.cls-21,.cls-23,.cls-4,.cls-6,.cls-8{fill-opacity:0;}.cls-2{stroke:#20242f;}.cls-3{fill:#eadbca;}.cls-4{stroke:#eadbca;}.cls-5{fill:#616263;}.cls-6{stroke:#616263;}.cls-7{fill:#d8d8d8;}.cls-8{stroke:#d8d8d8;}.cls-9{fill:#e1e1e1;}.cls-10{stroke:#e1e1e1;}.cls-11{fill:#232830;}.cls-12{stroke:#232830;}.cls-13{fill:#1f2530;}.cls-14{stroke:#1f2530;}.cls-15{stroke:#000;}.cls-16{fill:#606772;}.cls-17{stroke:#606772;}.cls-18{fill:#333a47;}.cls-19{stroke:#333a47;}.cls-20{fill:#fff;}.cls-21{stroke:#fff;}.cls-22{fill:#ededed;}.cls-23{stroke:#ededed;}</style></defs><title>shark</title><g id="tail"><path id="c2VotibNh" class="cls-1" d="M1265.21,513.35l58.89,7.75,24.13-7.75,66-50.66,145.39-80.47-21.82,45.3V445.4h-19.38l-46,37.55-18.79,30.4-7.87,27.42V573l7.87,22,47.88,77.49L1533,710.65l-55.12-21.46-46.06-29.8-95.73-90.6L1293.7,573Z" transform="translate(-359.38 -277.22)"/><path class="cls-2" d="M1265.21,513.35l58.89,7.75,24.13-7.75,66-50.66,145.39-80.47-21.82,45.3V445.4h-19.38l-46,37.55-18.79,30.4-7.87,27.42V573l7.87,22,47.88,77.49L1533,710.65l-55.12-21.46-46.06-29.8-95.73-90.6L1293.7,573Z" transform="translate(-359.38 -277.22)"/><path id="k38twMFLmb" class="cls-1" d="M1208.7,599.35h27l16.69-11.13,15.09,7.15V580.28l26.23-7.16,31.78-50.85-58-9.54V484.91l-11.92,8.75-12.71,14.73-53.5,73.87Z" transform="translate(-359.38 -277.22)"/><path class="cls-2" d="M1208.7,599.35h27l16.69-11.13,15.09,7.15V580.28l26.23-7.16,31.78-50.85-58-9.54V484.91l-11.92,8.75-12.71,14.73-53.5,73.87Z" transform="translate(-359.38 -277.22)"/></g><g id="jaw"><path id="a7Z5Fd8VvV" class="cls-3" d="M529.89,657.57l-.43-4-11.2,6.48v-3.26l-8,3.69,2.44,2.82-16.69,1-1.55-5.87-5.08-.71-7.68-11,11.85,8.2-5.17-19.64L500.3,649l-.64-13.71,3.7,5,1.26-9.73,5.24,9.89,1-8.08,7.44,14V629l10,12.57-1.52-14.47,16.54,14.3Z" transform="translate(-359.38 -277.22)"/><path class="cls-4" d="M529.89,657.57l-.43-4-11.2,6.48v-3.26l-8,3.69,2.44,2.82-16.69,1-1.55-5.87-5.08-.71-7.68-11,11.85,8.2-5.17-19.64L500.3,649l-.64-13.71,3.7,5,1.26-9.73,5.24,9.89,1-8.08,7.44,14V629l10,12.57-1.52-14.47,16.54,14.3Z" transform="translate(-359.38 -277.22)"/><path id="dMa173Nkd" class="cls-5" d="M585.47,690.74l75.7-1.19-20.87-25.3L505,680.61Z" transform="translate(-359.38 -277.22)"/><path class="cls-6" d="M585.47,690.74l75.7-1.19-20.87-25.3L505,680.61Z" transform="translate(-359.38 -277.22)"/><path id="gCbyfp8aK" class="cls-7" d="M642.38,665l-137.5,14.3-15.09-9.53V658.62l25.44-2.38,34.16-35Z" transform="translate(-359.38 -277.22)"/><path class="cls-8" d="M642.38,665l-137.5,14.3-15.09-9.53V658.62l25.44-2.38,34.16-35Z" transform="translate(-359.38 -277.22)"/></g><g id="body"><polygon class="cls-5" points="290.62 414.78 290.62 376.78 243.62 359.78 290.62 414.78"/><path id="b1n7CnJ12N" class="cls-9" d="M815.4,608.05l-83.49,63.19H666L580.2,597.73Z" transform="translate(-359.38 -277.22)"/><path class="cls-10" d="M815.4,608.05l-83.49,63.19H666L580.2,597.73Z" transform="translate(-359.38 -277.22)"/><path id="a1Dhi4ZQ07" class="cls-11" d="M807.65,663.13l5.61,29.8,17.64,24.44,60.8,53L959.05,802H982.3V790.68l-38.15-73.31-3-32.78,14.3-25-1.78-17.88-137.1-33.38L752.82,654.4Z" transform="translate(-359.38 -277.22)"/><path class="cls-12" d="M807.65,663.13l5.61,29.8,17.64,24.44,60.8,53L959.05,802H982.3V790.68l-38.15-73.31-3-32.78,14.3-25-1.78-17.88-137.1-33.38L752.82,654.4Z" transform="translate(-359.38 -277.22)"/><path id="a19OeP1hZX" class="cls-5" d="M805.41,664.25,754,654.4l-21.32,19.05-90.31-7.15,5.67,23.25h46.5l116.23-1.79Z" transform="translate(-359.38 -277.22)"/><path class="cls-6" d="M805.41,664.25,754,654.4l-21.32,19.05-90.31-7.15,5.67,23.25h46.5l116.23-1.79Z" transform="translate(-359.38 -277.22)"/><path id="c4mrglrhBi" class="cls-13" d="M808.75,478.52l6.65,128-233.46-9.25Z" transform="translate(-359.38 -277.22)"/><path class="cls-14" d="M808.75,478.52l6.65,128-233.46-9.25Z" transform="translate(-359.38 -277.22)"/><path id="f64ecJf9Q7" d="M769.46,654.4l-13.71-149L779,594.18ZM722.37,652,701.51,505.37l23.84,73.91Zm27.42,0L731.91,501.19l23.84,82.33Zm40.41,0L774.7,501.19l19.67,81.07Z" transform="translate(-359.38 -277.22)"/><path class="cls-15" d="M769.46,654.4l-13.71-149L779,594.18ZM722.37,652,701.51,505.37l23.84,73.91Zm27.42,0L731.91,501.19l23.84,82.33Zm40.41,0L774.7,501.19l19.67,81.07Z" transform="translate(-359.38 -277.22)"/><path id="cYC03GHIh" class="cls-9" d="M1192,583.52l-144.24,57L956.71,654.4,815.4,606.48Z" transform="translate(-359.38 -277.22)"/><path class="cls-10" d="M1192,583.52l-144.24,57L956.71,654.4,815.4,606.48Z" transform="translate(-359.38 -277.22)"/><path id="c1oCvxFXFS" class="cls-1" d="M810.78,478.52l378.61,105-374,24.77Z" transform="translate(-359.38 -277.22)"/><path class="cls-2" d="M810.78,478.52l378.61,105-374,24.77Z" transform="translate(-359.38 -277.22)"/><path id="bLtV80klM" class="cls-5" d="M956.71,656l92.49-16,112.06-42.82L1197,619l-121.6,37L946.68,679.29Z" transform="translate(-359.38 -277.22)"/><path class="cls-6" d="M956.71,656l92.49-16,112.06-42.82L1197,619l-121.6,37L946.68,679.29Z" transform="translate(-359.38 -277.22)"/><path id="axiFz8pvp" class="cls-11" d="M1189.39,583.52,810.78,476.73l82.85-43.46Z" transform="translate(-359.38 -277.22)"/><path class="cls-12" d="M1189.39,583.52,810.78,476.73l82.85-43.46Z" transform="translate(-359.38 -277.22)"/><path id="c2Hgrtvmde" class="cls-13" d="M1037,445.69l203.85,62.7-54.84,75.13L890.41,433.27Z" transform="translate(-359.38 -277.22)"/><path class="cls-14" d="M1037,445.69l203.85,62.7-54.84,75.13L890.41,433.27Z" transform="translate(-359.38 -277.22)"/><path id="aAxk9EKr" class="cls-11" d="M1033.68,451.65l32-4.7-21-17.28-11-32.1-11-74.05,6.1-37-9.78-8.63-26.84,16.05-38,45.68L907.93,421l-21.72,13.59Z" transform="translate(-359.38 -277.22)"/><path class="cls-12" d="M1033.68,451.65l32-4.7-21-17.28-11-32.1-11-74.05,6.1-37-9.78-8.63-26.84,16.05-38,45.68L907.93,421l-21.72,13.59Z" transform="translate(-359.38 -277.22)"/><path id="gJ2ctxyat" class="cls-9" d="M1189.39,582.26l17.88,17.28h29.8l35.77,37h-13.12L1200.12,619l-39.34-23.58Z" transform="translate(-359.38 -277.22)"/><path class="cls-10" d="M1189.39,582.26l17.88,17.28h29.8l35.77,37h-13.12L1200.12,619l-39.34-23.58Z" transform="translate(-359.38 -277.22)"/></g><g id="head"><path id="h7ENuWXyC1" class="cls-16" d="M389.46,500.31l203.64-42.2L359.66,520.2Z" transform="translate(-359.38 -277.22)"/><path class="cls-17" d="M389.46,500.31l203.64-42.2L359.66,520.2Z" transform="translate(-359.38 -277.22)"/><path id="b4859pLtz" class="cls-11" d="M893.63,433.27,578.2,597.18l-218.54-77Z" transform="translate(-359.38 -277.22)"/><path class="cls-12" d="M893.63,433.27,578.2,597.18l-218.54-77Z" transform="translate(-359.38 -277.22)"/><path id="b2ZqPvcVEh" class="cls-18" d="M893.63,433.27,593.1,458.11,359.66,520.2Z" transform="translate(-359.38 -277.22)"/><path class="cls-19" d="M893.63,433.27,593.1,458.11,359.66,520.2Z" transform="translate(-359.38 -277.22)"/><path id="g9P6RNZhV" class="cls-20" d="M450.21,530.4l9.54,6.56,11.32-6.56-4.17-10.2H450.21Z" transform="translate(-359.38 -277.22)"/><path class="cls-21" d="M450.21,530.4l9.54,6.56,11.32-6.56-4.17-10.2H450.21Z" transform="translate(-359.38 -277.22)"/><path id="k1rXqa955Z" class="cls-3" d="M499.66,597.73h7.63v12.73Zm-15.26-4.67h10v15.73Zm-8-.84v14.26L466.28,589H484.4v16.22ZM452.45,589h13.83v16.22Z" transform="translate(-359.38 -277.22)"/><path class="cls-4" d="M499.66,597.73h7.63v12.73Zm-15.26-4.67h10v15.73Zm-8-.84v14.26L466.28,589H484.4v16.22ZM452.45,589h13.83v16.22Z" transform="translate(-359.38 -277.22)"/><path id="d1djcSFDAC" class="cls-22" d="M590.24,602.21l84.23,77.08L561.34,623.88,477.8,588.55l-27.11-2-32.21-18.86L387.1,550.83,362,522.58Z" transform="translate(-359.38 -277.22)"/><path class="cls-23" d="M590.24,602.21l84.23,77.08L561.34,623.88,477.8,588.55l-27.11-2-32.21-18.86L387.1,550.83,362,522.58Z" transform="translate(-359.38 -277.22)"/><path id="b5htpH21g9" class="cls-16" d="M717.29,433.27H893.63L593.1,458.11Z" transform="translate(-359.38 -277.22)"/><path class="cls-17" d="M717.29,433.27H893.63L593.1,458.11Z" transform="translate(-359.38 -277.22)"/></g></svg>